<?xml version="1.0" encoding="utf-8"?>
<!-- Generator: Adobe Illustrator 19.1.0, SVG Export Plug-In . SVG Version: 6.00 Build 0)  -->
<svg version="1.1" id="Layer_1" xmlns="http://www.w3.org/2000/svg" xmlns:xlink="http://www.w3.org/1999/xlink" x="0px" y="0px"
	 viewBox="0 0 1000 1000" style="enable-background:new 0 0 1000 1000;" xml:space="preserve">
<style type="text/css">
	.st0{fill:#FFE799;}
	.st1{opacity:0.15;fill:none;stroke:#3D3D3D;stroke-width:0.25;stroke-linecap:round;stroke-miterlimit:10;}
	.st2{fill:#333333;}
	.st3{fill:#FFFFFF;}
	.st4{fill:#EFEFEF;}
	.st5{opacity:0.1;clip-path:url(#SVGID_2_);fill:#474747;}
	.st6{opacity:0.15;}
	.st7{fill:#FC4747;}
	.st8{fill:#CE3232;}
	.st9{opacity:0.55;fill:#1E1E1E;}
	.st10{fill:#A54804;}
	.st11{fill:#6D2C00;}
	.st12{clip-path:url(#SVGID_4_);fill:#FFFFFF;}
	.st13{clip-path:url(#SVGID_6_);fill:#FFFFFF;}
	.st14{fill:#232323;}
	.st15{opacity:0.34;fill:#FFFFFF;}
	.st16{clip-path:url(#SVGID_8_);fill:#CE3232;}
	.st17{fill:#FFE817;}
	.st18{clip-path:url(#SVGID_10_);fill:#EDD003;}
	.st19{fill:#CE3232;stroke:#3A3A3A;stroke-miterlimit:10;}
</style>
<g>
	<path class="st0" d="M290.4,607.4l8.7,12.9c0.4,0.6,0.2,1.4-0.3,1.8l-33.6,22.7c-0.6,0.4-1.4,0.2-1.8-0.3l-8.7-12.9
		c-0.4-0.6-0.2-1.4,0.3-1.8l33.6-22.7C289.2,606.7,290,606.8,290.4,607.4z"/>
	<path class="st0" d="M280.8,579.5l8.7,12.9c0.4,0.6,0.2,1.4-0.3,1.8l-33.6,22.7c-0.6,0.4-1.4,0.2-1.8-0.3l-8.7-12.9
		c-0.4-0.6-0.2-1.4,0.3-1.8l33.6-22.7C279.6,578.8,280.4,578.9,280.8,579.5z"/>
	<line class="st1" x1="265.5" y1="638.1" x2="261" y2="631.6"/>
	<line class="st1" x1="270" y1="637.8" x2="263" y2="627.5"/>
	<line class="st1" x1="255.8" y1="610.8" x2="251.3" y2="604.3"/>
	<line class="st1" x1="260.1" y1="610.4" x2="253.2" y2="600.1"/>
</g>
<path class="st2" d="M298.9,560.2l34.2,52.6c1.5,2.3,0.8,5.4-1.5,6.9l-36.1,23.5c-2.3,1.5-5.4,0.8-6.9-1.5l-34.2-52.6
	c-1.5-2.3-0.8-5.4,1.5-6.9l36.1-23.5C294.2,557.3,297.4,557.9,298.9,560.2z"/>
<g>
	<path class="st3" d="M866.9,754.5L64.8,442.7c-2.6-1-3.8-3.9-2.8-6.5l70.6-181.6c1-2.6,3.9-3.8,6.5-2.8l802.1,311.8
		c2.6,1,3.8,3.9,2.8,6.5l-70.6,181.6C872.4,754.2,869.5,755.5,866.9,754.5z"/>
	<g>
		
			<rect x="841.1" y="713" transform="matrix(0.9321 0.3623 -0.3623 0.9321 318.6264 -258.5635)" class="st4" width="15.4" height="14.7"/>
	</g>
	<g>
		
			<rect x="812.4" y="701.8" transform="matrix(0.9321 0.3623 -0.3623 0.9321 312.6477 -248.9444)" class="st4" width="15.4" height="14.7"/>
	</g>
	<g>
		
			<rect x="783.8" y="690.7" transform="matrix(0.9321 0.3623 -0.3623 0.9321 306.6691 -239.3253)" class="st4" width="15.4" height="14.7"/>
	</g>
	<g>
		
			<rect x="755.1" y="679.6" transform="matrix(0.9321 0.3623 -0.3623 0.9321 300.6905 -229.7062)" class="st4" width="15.4" height="14.7"/>
	</g>
	<g>
		
			<rect x="726.5" y="668.4" transform="matrix(0.9321 0.3623 -0.3623 0.9321 294.7119 -220.0871)" class="st4" width="15.4" height="14.7"/>
	</g>
	<g>
		
			<rect x="697.9" y="657.3" transform="matrix(0.9321 0.3623 -0.3623 0.9321 288.7333 -210.468)" class="st4" width="15.4" height="14.7"/>
	</g>
	<g>
		
			<rect x="669.2" y="646.2" transform="matrix(0.9321 0.3623 -0.3623 0.9321 282.7546 -200.8489)" class="st4" width="15.4" height="14.7"/>
	</g>
	<g>
		
			<rect x="640.6" y="635" transform="matrix(0.9321 0.3623 -0.3623 0.9321 276.776 -191.2298)" class="st4" width="15.4" height="14.7"/>
	</g>
	<g>
		
			<rect x="612" y="623.9" transform="matrix(0.9321 0.3623 -0.3623 0.9321 270.7974 -181.6107)" class="st4" width="15.4" height="14.7"/>
	</g>
	<g>
		
			<rect x="583.3" y="612.8" transform="matrix(0.9321 0.3623 -0.3623 0.9321 264.8188 -171.9916)" class="st4" width="15.4" height="14.7"/>
	</g>
	<g>
		
			<rect x="554.7" y="601.6" transform="matrix(0.9321 0.3623 -0.3623 0.9321 258.8402 -162.3725)" class="st4" width="15.4" height="14.7"/>
	</g>
	<g>
		
			<rect x="526" y="590.5" transform="matrix(0.9321 0.3623 -0.3623 0.9321 252.8616 -152.7534)" class="st4" width="15.4" height="14.7"/>
	</g>
	<g>
		
			<rect x="497.4" y="579.4" transform="matrix(0.9321 0.3623 -0.3623 0.9321 246.8829 -143.1344)" class="st4" width="15.4" height="14.7"/>
	</g>
	<g>
		
			<rect x="468.8" y="568.2" transform="matrix(0.9321 0.3623 -0.3623 0.9321 240.9043 -133.5152)" class="st4" width="15.4" height="14.7"/>
	</g>
	<g>
		
			<rect x="440.1" y="557.1" transform="matrix(0.9321 0.3623 -0.3623 0.9321 234.9257 -123.8962)" class="st4" width="15.4" height="14.7"/>
	</g>
	<g>
		
			<rect x="239.7" y="479.2" transform="matrix(0.9321 0.3623 -0.3623 0.9321 193.0754 -56.5625)" class="st4" width="15.4" height="14.7"/>
	</g>
	<g>
		
			<rect x="211" y="468.1" transform="matrix(0.9321 0.3623 -0.3623 0.9321 187.0968 -46.9434)" class="st4" width="15.4" height="14.7"/>
	</g>
	<g>
		
			<rect x="182.4" y="456.9" transform="matrix(0.9321 0.3623 -0.3623 0.9321 181.1181 -37.3243)" class="st4" width="15.4" height="14.7"/>
	</g>
	<g>
		
			<rect x="153.8" y="445.8" transform="matrix(0.9321 0.3623 -0.3623 0.9321 175.1395 -27.7052)" class="st4" width="15.4" height="14.7"/>
	</g>
	<g>
		
			<rect x="125.1" y="434.7" transform="matrix(0.9321 0.3623 -0.3623 0.9321 169.1609 -18.0861)" class="st4" width="15.4" height="14.7"/>
	</g>
	<g>
		
			<rect x="96.5" y="423.5" transform="matrix(0.9321 0.3623 -0.3623 0.9321 163.1823 -8.467)" class="st4" width="15.4" height="14.7"/>
	</g>
	<g>
		<g>
			<g>
				
					<rect x="852" y="684.8" transform="matrix(0.9321 0.3623 -0.3623 0.9321 309.1813 -264.4339)" class="st4" width="15.4" height="14.7"/>
			</g>
			<g>
				
					<rect x="823.4" y="673.7" transform="matrix(0.9321 0.3623 -0.3623 0.9321 303.2027 -254.8148)" class="st4" width="15.4" height="14.7"/>
			</g>
			<g>
				
					<rect x="794.7" y="662.6" transform="matrix(0.9321 0.3623 -0.3623 0.9321 297.2241 -245.1958)" class="st4" width="15.4" height="14.7"/>
			</g>
			<g>
				
					<rect x="766.1" y="651.4" transform="matrix(0.9321 0.3623 -0.3623 0.9321 291.2455 -235.5767)" class="st4" width="15.4" height="14.7"/>
			</g>
			<g>
				
					<rect x="737.4" y="640.3" transform="matrix(0.9321 0.3623 -0.3623 0.9321 285.2668 -225.9576)" class="st4" width="15.4" height="14.7"/>
			</g>
			<g>
				
					<rect x="708.8" y="629.2" transform="matrix(0.9321 0.3623 -0.3623 0.9321 279.2882 -216.3385)" class="st4" width="15.4" height="14.7"/>
			</g>
			<g>
				
					<rect x="680.2" y="618.1" transform="matrix(0.9321 0.3623 -0.3623 0.9321 273.3096 -206.7194)" class="st4" width="15.4" height="14.7"/>
			</g>
			<g>
				
					<rect x="651.5" y="606.9" transform="matrix(0.9321 0.3623 -0.3623 0.9321 267.331 -197.1003)" class="st4" width="15.4" height="14.7"/>
			</g>
			<g>
				
					<rect x="622.9" y="595.8" transform="matrix(0.9321 0.3623 -0.3623 0.9321 261.3524 -187.4812)" class="st4" width="15.4" height="14.7"/>
			</g>
			<g>
				
					<rect x="594.3" y="584.7" transform="matrix(0.9321 0.3623 -0.3623 0.9321 255.3738 -177.8621)" class="st4" width="15.4" height="14.7"/>
			</g>
			<g>
				
					<rect x="565.6" y="573.5" transform="matrix(0.9321 0.3623 -0.3623 0.9321 249.3951 -168.243)" class="st4" width="15.4" height="14.7"/>
			</g>
			<g>
				
					<rect x="537" y="562.4" transform="matrix(0.9321 0.3623 -0.3623 0.9321 243.4165 -158.6239)" class="st4" width="15.4" height="14.7"/>
			</g>
			<g>
				
					<rect x="508.3" y="551.3" transform="matrix(0.9321 0.3623 -0.3623 0.9321 237.4379 -149.0048)" class="st4" width="15.4" height="14.7"/>
			</g>
			<g>
				
					<rect x="479.7" y="540.1" transform="matrix(0.9321 0.3623 -0.3623 0.9321 231.4593 -139.3857)" class="st4" width="15.4" height="14.7"/>
			</g>
			<g>
				
					<rect x="451.1" y="529" transform="matrix(0.9321 0.3623 -0.3623 0.9321 225.4807 -129.7666)" class="st4" width="15.4" height="14.7"/>
			</g>
			<g>
				
					<rect x="422.4" y="517.9" transform="matrix(0.9321 0.3623 -0.3623 0.9321 219.502 -120.1475)" class="st4" width="15.4" height="14.7"/>
			</g>
			<g>
				
					<rect x="393.8" y="506.7" transform="matrix(0.9321 0.3623 -0.3623 0.9321 213.5234 -110.5284)" class="st4" width="15.4" height="14.7"/>
			</g>
			<g>
				
					<rect x="365.2" y="495.6" transform="matrix(0.9321 0.3623 -0.3623 0.9321 207.5448 -100.9093)" class="st4" width="15.4" height="14.7"/>
			</g>
			<g>
				
					<rect x="336.5" y="484.5" transform="matrix(0.9321 0.3623 -0.3623 0.9321 201.5662 -91.2902)" class="st4" width="15.4" height="14.7"/>
			</g>
			<g>
				
					<rect x="307.9" y="473.3" transform="matrix(0.9321 0.3623 -0.3623 0.9321 195.5876 -81.6711)" class="st4" width="15.4" height="14.7"/>
			</g>
			<g>
				
					<rect x="279.2" y="462.2" transform="matrix(0.9321 0.3623 -0.3623 0.9321 189.6089 -72.052)" class="st4" width="15.4" height="14.7"/>
			</g>
			<g>
				
					<rect x="250.6" y="451.1" transform="matrix(0.9321 0.3623 -0.3623 0.9321 183.6303 -62.4329)" class="st4" width="15.4" height="14.7"/>
			</g>
			<g>
				
					<rect x="222" y="439.9" transform="matrix(0.9321 0.3623 -0.3623 0.9321 177.6517 -52.8138)" class="st4" width="15.4" height="14.7"/>
			</g>
			<g>
				
					<rect x="193.3" y="428.8" transform="matrix(0.9321 0.3623 -0.3623 0.9321 171.6731 -43.1947)" class="st4" width="15.4" height="14.7"/>
			</g>
			<g>
				
					<rect x="164.7" y="417.7" transform="matrix(0.9321 0.3623 -0.3623 0.9321 165.6945 -33.5756)" class="st4" width="15.4" height="14.7"/>
			</g>
			<g>
				
					<rect x="136.1" y="406.5" transform="matrix(0.9321 0.3623 -0.3623 0.9321 159.7159 -23.9565)" class="st4" width="15.4" height="14.7"/>
			</g>
			<g>
				
					<rect x="107.4" y="395.4" transform="matrix(0.9321 0.3623 -0.3623 0.9321 153.7372 -14.3374)" class="st4" width="15.4" height="14.7"/>
			</g>
		</g>
		<g>
			<g>
				
					<rect x="863.1" y="656.2" transform="matrix(0.9321 0.3623 -0.3623 0.9321 299.5622 -270.4126)" class="st4" width="15.4" height="14.7"/>
			</g>
			<g>
				
					<rect x="834.5" y="645.1" transform="matrix(0.9321 0.3623 -0.3623 0.9321 293.5836 -260.7935)" class="st4" width="15.4" height="14.7"/>
			</g>
			<g>
				
					<rect x="805.8" y="633.9" transform="matrix(0.9321 0.3623 -0.3623 0.9321 287.605 -251.1744)" class="st4" width="15.4" height="14.7"/>
			</g>
			<g>
				
					<rect x="777.2" y="622.8" transform="matrix(0.9321 0.3623 -0.3623 0.9321 281.6264 -241.5553)" class="st4" width="15.4" height="14.7"/>
			</g>
			<g>
				
					<rect x="748.6" y="611.7" transform="matrix(0.9321 0.3623 -0.3623 0.9321 275.6478 -231.9362)" class="st4" width="15.4" height="14.7"/>
			</g>
			<g>
				
					<rect x="719.9" y="600.5" transform="matrix(0.9321 0.3623 -0.3623 0.9321 269.6691 -222.3171)" class="st4" width="15.4" height="14.7"/>
			</g>
			<g>
				
					<rect x="691.3" y="589.4" transform="matrix(0.9321 0.3623 -0.3623 0.9321 263.6905 -212.698)" class="st4" width="15.4" height="14.7"/>
			</g>
			<g>
				
					<rect x="662.7" y="578.3" transform="matrix(0.9321 0.3623 -0.3623 0.9321 257.7119 -203.0789)" class="st4" width="15.4" height="14.7"/>
			</g>
			<g>
				
					<rect x="634" y="567.2" transform="matrix(0.9321 0.3623 -0.3623 0.9321 251.7333 -193.4598)" class="st4" width="15.4" height="14.7"/>
			</g>
			<g>
				
					<rect x="605.4" y="556" transform="matrix(0.9321 0.3623 -0.3623 0.9321 245.7547 -183.8407)" class="st4" width="15.4" height="14.7"/>
			</g>
			<g>
				
					<rect x="576.7" y="544.9" transform="matrix(0.9321 0.3623 -0.3623 0.9321 239.776 -174.2216)" class="st4" width="15.4" height="14.7"/>
			</g>
			<g>
				
					<rect x="548.1" y="533.8" transform="matrix(0.9321 0.3623 -0.3623 0.9321 233.7974 -164.6025)" class="st4" width="15.4" height="14.7"/>
			</g>
			<g>
				
					<rect x="519.5" y="522.6" transform="matrix(0.9321 0.3623 -0.3623 0.9321 227.8188 -154.9834)" class="st4" width="15.4" height="14.7"/>
			</g>
			<g>
				
					<rect x="490.8" y="511.5" transform="matrix(0.9321 0.3623 -0.3623 0.9321 221.8402 -145.3643)" class="st4" width="15.4" height="14.7"/>
			</g>
			<g>
				
					<rect x="462.2" y="500.4" transform="matrix(0.9321 0.3623 -0.3623 0.9321 215.8616 -135.7452)" class="st4" width="15.4" height="14.7"/>
			</g>
			<g>
				
					<rect x="433.6" y="489.2" transform="matrix(0.9321 0.3623 -0.3623 0.9321 209.8829 -126.1261)" class="st4" width="15.4" height="14.7"/>
			</g>
			<g>
				
					<rect x="404.9" y="478.1" transform="matrix(0.9321 0.3623 -0.3623 0.9321 203.9043 -116.507)" class="st4" width="15.4" height="14.7"/>
			</g>
			<g>
				
					<rect x="376.3" y="467" transform="matrix(0.9321 0.3623 -0.3623 0.9321 197.9257 -106.8879)" class="st4" width="15.4" height="14.7"/>
			</g>
			<g>
				
					<rect x="347.6" y="455.8" transform="matrix(0.9321 0.3623 -0.3623 0.9321 191.9471 -97.2688)" class="st4" width="15.4" height="14.7"/>
			</g>
			<g>
				
					<rect x="319" y="444.7" transform="matrix(0.9321 0.3623 -0.3623 0.9321 185.9685 -87.6497)" class="st4" width="15.4" height="14.7"/>
			</g>
			<g>
				
					<rect x="290.4" y="433.6" transform="matrix(0.9321 0.3623 -0.3623 0.9321 179.9899 -78.0306)" class="st4" width="15.4" height="14.7"/>
			</g>
			<g>
				
					<rect x="261.7" y="422.4" transform="matrix(0.9321 0.3623 -0.3623 0.9321 174.0112 -68.4115)" class="st4" width="15.4" height="14.7"/>
			</g>
			<g>
				
					<rect x="233.1" y="411.3" transform="matrix(0.9321 0.3623 -0.3623 0.9321 168.0326 -58.7924)" class="st4" width="15.4" height="14.7"/>
			</g>
			<g>
				
					<rect x="204.5" y="400.2" transform="matrix(0.9321 0.3623 -0.3623 0.9321 162.054 -49.1733)" class="st4" width="15.4" height="14.7"/>
			</g>
			<g>
				
					<rect x="175.8" y="389" transform="matrix(0.9321 0.3623 -0.3623 0.9321 156.0754 -39.5542)" class="st4" width="15.4" height="14.7"/>
			</g>
			<g>
				
					<rect x="147.2" y="377.9" transform="matrix(0.9321 0.3623 -0.3623 0.9321 150.0968 -29.9351)" class="st4" width="15.4" height="14.7"/>
			</g>
			<g>
				
					<rect x="118.5" y="366.8" transform="matrix(0.9321 0.3623 -0.3623 0.9321 144.1181 -20.316)" class="st4" width="15.4" height="14.7"/>
			</g>
		</g>
		<g>
			<g>
				
					<rect x="874.3" y="627.6" transform="matrix(0.9321 0.3623 -0.3623 0.9321 289.9431 -276.3912)" class="st4" width="15.4" height="14.7"/>
			</g>
			<g>
				
					<rect x="845.6" y="616.4" transform="matrix(0.9321 0.3623 -0.3623 0.9321 283.9645 -266.7721)" class="st4" width="15.4" height="14.7"/>
			</g>
			<g>
				
					<rect x="817" y="605.3" transform="matrix(0.9321 0.3623 -0.3623 0.9321 277.9859 -257.153)" class="st4" width="15.4" height="14.7"/>
			</g>
			<g>
				
					<rect x="788.3" y="594.2" transform="matrix(0.9321 0.3623 -0.3623 0.9321 272.0073 -247.5339)" class="st4" width="15.4" height="14.7"/>
			</g>
			<g>
				
					<rect x="759.7" y="583" transform="matrix(0.9321 0.3623 -0.3623 0.9321 266.0287 -237.9148)" class="st4" width="15.4" height="14.7"/>
			</g>
			<g>
				
					<rect x="731.1" y="571.9" transform="matrix(0.9321 0.3623 -0.3623 0.9321 260.05 -228.2957)" class="st4" width="15.4" height="14.7"/>
			</g>
			<g>
				
					<rect x="702.4" y="560.8" transform="matrix(0.9321 0.3623 -0.3623 0.9321 254.0714 -218.6766)" class="st4" width="15.4" height="14.7"/>
			</g>
			<g>
				
					<rect x="673.8" y="549.6" transform="matrix(0.9321 0.3623 -0.3623 0.9321 248.0928 -209.0575)" class="st4" width="15.4" height="14.7"/>
			</g>
			<g>
				
					<rect x="645.2" y="538.5" transform="matrix(0.9321 0.3623 -0.3623 0.9321 242.1142 -199.4384)" class="st4" width="15.4" height="14.7"/>
			</g>
			<g>
				
					<rect x="616.5" y="527.4" transform="matrix(0.9321 0.3623 -0.3623 0.9321 236.1356 -189.8193)" class="st4" width="15.4" height="14.7"/>
			</g>
			<g>
				
					<rect x="587.9" y="516.2" transform="matrix(0.9321 0.3623 -0.3623 0.9321 230.157 -180.2002)" class="st4" width="15.4" height="14.7"/>
			</g>
			<g>
				
					<rect x="559.2" y="505.1" transform="matrix(0.9321 0.3623 -0.3623 0.9321 224.1783 -170.5811)" class="st4" width="15.4" height="14.7"/>
			</g>
			<g>
				
					<rect x="530.6" y="494" transform="matrix(0.9321 0.3623 -0.3623 0.9321 218.1997 -160.962)" class="st4" width="15.4" height="14.7"/>
			</g>
			<g>
				
					<rect x="502" y="482.9" transform="matrix(0.9321 0.3623 -0.3623 0.9321 212.2211 -151.3429)" class="st4" width="15.4" height="14.7"/>
			</g>
			<g>
				
					<rect x="473.3" y="471.7" transform="matrix(0.9321 0.3623 -0.3623 0.9321 206.2425 -141.7238)" class="st4" width="15.4" height="14.7"/>
			</g>
			<g>
				
					<rect x="444.7" y="460.6" transform="matrix(0.9321 0.3623 -0.3623 0.9321 200.2639 -132.1047)" class="st4" width="15.4" height="14.7"/>
			</g>
			<g>
				
					<rect x="416.1" y="449.5" transform="matrix(0.9321 0.3623 -0.3623 0.9321 194.2852 -122.4856)" class="st4" width="15.4" height="14.7"/>
			</g>
			<g>
				
					<rect x="387.4" y="438.3" transform="matrix(0.9321 0.3623 -0.3623 0.9321 188.3066 -112.8665)" class="st4" width="15.4" height="14.7"/>
			</g>
			<g>
				
					<rect x="358.8" y="427.2" transform="matrix(0.9321 0.3623 -0.3623 0.9321 182.328 -103.2474)" class="st4" width="15.4" height="14.7"/>
			</g>
			<g>
				
					<rect x="330.1" y="416.1" transform="matrix(0.9321 0.3623 -0.3623 0.9321 176.3494 -93.6283)" class="st4" width="15.4" height="14.7"/>
			</g>
			<g>
				
					<rect x="301.5" y="404.9" transform="matrix(0.9321 0.3623 -0.3623 0.9321 170.3708 -84.0092)" class="st4" width="15.4" height="14.7"/>
			</g>
			<g>
				
					<rect x="272.9" y="393.8" transform="matrix(0.9321 0.3623 -0.3623 0.9321 164.3921 -74.3901)" class="st4" width="15.4" height="14.7"/>
			</g>
			<g>
				
					<rect x="244.2" y="382.7" transform="matrix(0.9321 0.3623 -0.3623 0.9321 158.4135 -64.771)" class="st4" width="15.4" height="14.7"/>
			</g>
			<g>
				
					<rect x="215.6" y="371.5" transform="matrix(0.9321 0.3623 -0.3623 0.9321 152.4349 -55.152)" class="st4" width="15.4" height="14.7"/>
			</g>
			<g>
				
					<rect x="187" y="360.4" transform="matrix(0.9321 0.3623 -0.3623 0.9321 146.4563 -45.5329)" class="st4" width="15.4" height="14.7"/>
			</g>
			<g>
				
					<rect x="158.3" y="349.3" transform="matrix(0.9321 0.3623 -0.3623 0.9321 140.4777 -35.9138)" class="st4" width="15.4" height="14.7"/>
			</g>
			<g>
				
					<rect x="129.7" y="338.1" transform="matrix(0.9321 0.3623 -0.3623 0.9321 134.499 -26.2947)" class="st4" width="15.4" height="14.7"/>
			</g>
		</g>
		<g>
			<g>
				
					<rect x="885.4" y="598.9" transform="matrix(0.9321 0.3623 -0.3623 0.9321 280.324 -282.3698)" class="st4" width="15.4" height="14.7"/>
			</g>
			<g>
				
					<rect x="856.7" y="587.8" transform="matrix(0.9321 0.3623 -0.3623 0.9321 274.3454 -272.7507)" class="st4" width="15.4" height="14.7"/>
			</g>
			<g>
				
					<rect x="828.1" y="576.7" transform="matrix(0.9321 0.3623 -0.3623 0.9321 268.3668 -263.1316)" class="st4" width="15.4" height="14.7"/>
			</g>
			<g>
				
					<rect x="799.5" y="565.5" transform="matrix(0.9321 0.3623 -0.3623 0.9321 262.3882 -253.5125)" class="st4" width="15.4" height="14.7"/>
			</g>
			<g>
				
					<rect x="770.8" y="554.4" transform="matrix(0.9321 0.3623 -0.3623 0.9321 256.4095 -243.8934)" class="st4" width="15.4" height="14.7"/>
			</g>
			<g>
				
					<rect x="742.2" y="543.3" transform="matrix(0.9321 0.3623 -0.3623 0.9321 250.4309 -234.2743)" class="st4" width="15.4" height="14.7"/>
			</g>
			<g>
				
					<rect x="713.6" y="532.1" transform="matrix(0.9321 0.3623 -0.3623 0.9321 244.4523 -224.6552)" class="st4" width="15.4" height="14.7"/>
			</g>
			<g>
				
					<rect x="684.9" y="521" transform="matrix(0.9321 0.3623 -0.3623 0.9321 238.4737 -215.0361)" class="st4" width="15.4" height="14.7"/>
			</g>
			<g>
				
					<rect x="656.3" y="509.9" transform="matrix(0.9321 0.3623 -0.3623 0.9321 232.4951 -205.417)" class="st4" width="15.4" height="14.7"/>
			</g>
			<g>
				
					<rect x="627.6" y="498.7" transform="matrix(0.9321 0.3623 -0.3623 0.9321 226.5165 -195.7979)" class="st4" width="15.4" height="14.7"/>
			</g>
			<g>
				
					<rect x="599" y="487.6" transform="matrix(0.9321 0.3623 -0.3623 0.9321 220.5378 -186.1788)" class="st4" width="15.4" height="14.7"/>
			</g>
			<g>
				
					<rect x="570.4" y="476.5" transform="matrix(0.9321 0.3623 -0.3623 0.9321 214.5592 -176.5597)" class="st4" width="15.4" height="14.7"/>
			</g>
			<g>
				
					<rect x="541.7" y="465.3" transform="matrix(0.9321 0.3623 -0.3623 0.9321 208.5806 -166.9406)" class="st4" width="15.4" height="14.7"/>
			</g>
			<g>
				
					<rect x="513.1" y="454.2" transform="matrix(0.9321 0.3623 -0.3623 0.9321 202.602 -157.3215)" class="st4" width="15.4" height="14.7"/>
			</g>
			<g>
				
					<rect x="484.5" y="443.1" transform="matrix(0.9321 0.3623 -0.3623 0.9321 196.6234 -147.7024)" class="st4" width="15.4" height="14.7"/>
			</g>
			<g>
				
					<rect x="455.8" y="432" transform="matrix(0.9321 0.3623 -0.3623 0.9321 190.6448 -138.0833)" class="st4" width="15.4" height="14.7"/>
			</g>
			<g>
				
					<rect x="427.2" y="420.8" transform="matrix(0.9321 0.3623 -0.3623 0.9321 184.6661 -128.4642)" class="st4" width="15.4" height="14.7"/>
			</g>
			<g>
				
					<rect x="398.5" y="409.7" transform="matrix(0.9321 0.3623 -0.3623 0.9321 178.6875 -118.8452)" class="st4" width="15.4" height="14.7"/>
			</g>
			<g>
				
					<rect x="369.9" y="398.6" transform="matrix(0.9321 0.3623 -0.3623 0.9321 172.7089 -109.2261)" class="st4" width="15.4" height="14.7"/>
			</g>
			<g>
				
					<rect x="341.3" y="387.4" transform="matrix(0.9321 0.3623 -0.3623 0.9321 166.7303 -99.607)" class="st4" width="15.4" height="14.7"/>
			</g>
			<g>
				
					<rect x="312.6" y="376.3" transform="matrix(0.9321 0.3623 -0.3623 0.9321 160.7517 -89.9879)" class="st4" width="15.4" height="14.7"/>
			</g>
			<g>
				
					<rect x="284" y="365.2" transform="matrix(0.9321 0.3623 -0.3623 0.9321 154.773 -80.3688)" class="st4" width="15.4" height="14.7"/>
			</g>
			<g>
				
					<rect x="255.4" y="354" transform="matrix(0.9321 0.3623 -0.3623 0.9321 148.7944 -70.7497)" class="st4" width="15.4" height="14.7"/>
			</g>
			<g>
				
					<rect x="226.7" y="342.9" transform="matrix(0.9321 0.3623 -0.3623 0.9321 142.8158 -61.1306)" class="st4" width="15.4" height="14.7"/>
			</g>
			<g>
				
					<rect x="198.1" y="331.8" transform="matrix(0.9321 0.3623 -0.3623 0.9321 136.8372 -51.5115)" class="st4" width="15.4" height="14.7"/>
			</g>
			<g>
				
					<rect x="169.4" y="320.6" transform="matrix(0.9321 0.3623 -0.3623 0.9321 130.8586 -41.8924)" class="st4" width="15.4" height="14.7"/>
			</g>
			<g>
				
					<rect x="140.8" y="309.5" transform="matrix(0.9321 0.3623 -0.3623 0.9321 124.88 -32.2733)" class="st4" width="15.4" height="14.7"/>
			</g>
		</g>
	</g>
	<g>
		<g>
			
				<rect x="898.9" y="569.4" transform="matrix(-0.3623 0.9321 -0.9321 -0.3623 1771.6511 -49.5136)" class="st4" width="7.8" height="23.9"/>
		</g>
		<g>
			
				<rect x="870.2" y="558.2" transform="matrix(-0.3623 0.9321 -0.9321 -0.3623 1722.2631 -37.9865)" class="st4" width="7.8" height="23.9"/>
		</g>
		<g>
			
				<rect x="841.6" y="547.1" transform="matrix(-0.3623 0.9321 -0.9321 -0.3623 1672.875 -26.4594)" class="st4" width="7.8" height="23.9"/>
		</g>
		<g>
			
				<rect x="813" y="536" transform="matrix(-0.3623 0.9321 -0.9321 -0.3623 1623.4868 -14.9323)" class="st4" width="7.8" height="23.9"/>
		</g>
		<g>
			
				<rect x="784.3" y="524.8" transform="matrix(-0.3623 0.9321 -0.9321 -0.3623 1574.0988 -3.4052)" class="st4" width="7.8" height="23.9"/>
		</g>
		<g>
			
				<rect x="755.7" y="513.7" transform="matrix(-0.3623 0.9321 -0.9321 -0.3623 1524.7107 8.1219)" class="st4" width="7.8" height="23.9"/>
		</g>
		<g>
			
				<rect x="727" y="502.6" transform="matrix(-0.3623 0.9321 -0.9321 -0.3623 1475.3225 19.649)" class="st4" width="7.8" height="23.9"/>
		</g>
		<g>
			
				<rect x="698.4" y="491.4" transform="matrix(-0.3623 0.9321 -0.9321 -0.3623 1425.9344 31.1761)" class="st4" width="7.8" height="23.9"/>
		</g>
		<g>
			
				<rect x="669.8" y="480.3" transform="matrix(-0.3623 0.9321 -0.9321 -0.3623 1376.5464 42.7032)" class="st4" width="7.8" height="23.9"/>
		</g>
		<g>
			
				<rect x="641.1" y="469.2" transform="matrix(-0.3623 0.9321 -0.9321 -0.3623 1327.1582 54.2303)" class="st4" width="7.8" height="23.9"/>
		</g>
		<g>
			
				<rect x="612.5" y="458" transform="matrix(-0.3623 0.9321 -0.9321 -0.3623 1277.7701 65.7574)" class="st4" width="7.8" height="23.9"/>
		</g>
		<g>
			
				<rect x="583.9" y="446.9" transform="matrix(-0.3623 0.9321 -0.9321 -0.3623 1228.382 77.2844)" class="st4" width="7.8" height="23.9"/>
		</g>
		<g>
			
				<rect x="555.2" y="435.8" transform="matrix(-0.3623 0.9321 -0.9321 -0.3623 1178.9939 88.8115)" class="st4" width="7.8" height="23.9"/>
		</g>
		<g>
			
				<rect x="526.6" y="424.6" transform="matrix(-0.3623 0.9321 -0.9321 -0.3623 1129.6058 100.3386)" class="st4" width="7.8" height="23.9"/>
		</g>
		<g>
			
				<rect x="497.9" y="413.5" transform="matrix(-0.3623 0.9321 -0.9321 -0.3623 1080.2177 111.8657)" class="st4" width="7.8" height="23.9"/>
		</g>
		<g>
			
				<rect x="469.3" y="402.4" transform="matrix(-0.3623 0.9321 -0.9321 -0.3623 1030.8296 123.3928)" class="st4" width="7.8" height="23.9"/>
		</g>
		<g>
			
				<rect x="440.7" y="391.3" transform="matrix(-0.3623 0.9321 -0.9321 -0.3623 981.4415 134.9199)" class="st4" width="7.8" height="23.9"/>
		</g>
		<g>
			
				<rect x="412" y="380.1" transform="matrix(-0.3623 0.9321 -0.9321 -0.3623 932.0533 146.447)" class="st4" width="7.8" height="23.9"/>
		</g>
		<g>
			
				<rect x="383.4" y="369" transform="matrix(-0.3623 0.9321 -0.9321 -0.3623 882.6653 157.9741)" class="st4" width="7.8" height="23.9"/>
		</g>
		<g>
			
				<rect x="354.8" y="357.9" transform="matrix(-0.3623 0.9321 -0.9321 -0.3623 833.2772 169.5012)" class="st4" width="7.8" height="23.9"/>
		</g>
		<g>
			
				<rect x="326.1" y="346.7" transform="matrix(-0.3623 0.9321 -0.9321 -0.3623 783.889 181.0283)" class="st4" width="7.8" height="23.9"/>
		</g>
		<g>
			
				<rect x="297.5" y="335.6" transform="matrix(-0.3623 0.9321 -0.9321 -0.3623 734.501 192.5554)" class="st4" width="7.8" height="23.9"/>
		</g>
		<g>
			
				<rect x="268.8" y="324.5" transform="matrix(-0.3623 0.9321 -0.9321 -0.3623 685.1129 204.0825)" class="st4" width="7.8" height="23.9"/>
		</g>
		<g>
			
				<rect x="240.2" y="313.3" transform="matrix(-0.3623 0.9321 -0.9321 -0.3623 635.7247 215.6096)" class="st4" width="7.8" height="23.9"/>
		</g>
		<g>
			
				<rect x="211.6" y="302.2" transform="matrix(-0.3623 0.9321 -0.9321 -0.3623 586.3366 227.1367)" class="st4" width="7.8" height="23.9"/>
		</g>
		<g>
			
				<rect x="182.9" y="291.1" transform="matrix(-0.3623 0.9321 -0.9321 -0.3623 536.9485 238.6638)" class="st4" width="7.8" height="23.9"/>
		</g>
		<g>
			
				<rect x="154.3" y="279.9" transform="matrix(-0.3623 0.9321 -0.9321 -0.3623 487.5604 250.1909)" class="st4" width="7.8" height="23.9"/>
		</g>
	</g>
	
		<rect x="263.1" y="517.7" transform="matrix(0.9321 0.3623 -0.3623 0.9321 214.0005 -90.2293)" class="st4" width="169" height="15.6"/>
</g>
<g>
	<defs>
		<path id="SVGID_1_" d="M866.9,754.5L64.8,442.7c-2.6-1-3.8-3.9-2.8-6.5l70.6-181.6c1-2.6,3.9-3.8,6.5-2.8l802.1,311.8
			c2.6,1,3.8,3.9,2.8,6.5l-70.6,181.6C872.4,754.2,869.5,755.5,866.9,754.5z"/>
	</defs>
	<clipPath id="SVGID_2_">
		<use xlink:href="#SVGID_1_"  style="overflow:visible;"/>
	</clipPath>
	<polygon class="st5" points="97.7,344.4 908.2,662 845.6,816.6 33.2,504.4 	"/>
</g>
<rect x="716.7" y="480.1" transform="matrix(0.9358 0.3524 -0.3524 0.9358 223.0529 -226.4314)" class="st6" width="33.4" height="38.5"/>
<rect x="750.3" y="493.5" transform="matrix(0.9358 0.3524 -0.3524 0.9358 231.3393 -236.4821)" class="st6" width="29.6" height="47.2"/>
<polygon class="st7" points="711.8,311.9 843,295 835.6,348.8 "/>
<polyline class="st8" points="711.8,311.9 839.3,321.9 835.6,348.8 "/>
<polygon class="st7" points="784.2,66.3 713.2,311.9 867.5,163 "/>
<polyline class="st8" points="827.4,116.4 713.2,311.9 867.5,163 "/>
<path class="st2" d="M307.4,744.3V295.7c0-58.9,52.5-107.1,116.7-107.1h171.1c64.2,0,116.7,48.2,116.7,107.1v448.6
	c0,58.9-52.5,157.9-116.7,157.9H424.1C359.9,902.2,307.4,803.2,307.4,744.3z"/>
<path class="st9" d="M678.7,436.1H340.5c-5.5,0-10-4.5-10-10V313.2c0-5.5,4.5-10,10-10h338.1c5.5,0,10,4.5,10,10v112.9
	C688.7,431.6,684.2,436.1,678.7,436.1z"/>
<path class="st0" d="M678.7,443.2H340.5c-5.5,0-10-4.5-10-10V320.3c0-5.5,4.5-10,10-10h338.1c5.5,0,10,4.5,10,10v112.9
	C688.7,438.7,684.2,443.2,678.7,443.2z"/>
<path class="st10" d="M460.2,335.2h-25c-1.2,0-2.2,1-2.2,2.2v75.7c0,1.2,1,2.2,2.2,2.2h25c1.2,0,2.2-1,2.2-2.2v-75.7
	C462.4,336.1,461.4,335.2,460.2,335.2z"/>
<path class="st10" d="M586.3,335.2h-25c-1.2,0-2.2,1-2.2,2.2v75.7c0,1.2,1,2.2,2.2,2.2h25c1.2,0,2.2-1,2.2-2.2v-75.7
	C588.5,336.1,587.5,335.2,586.3,335.2z"/>
<circle class="st11" cx="447.3" cy="376.3" r="10.5"/>
<circle class="st11" cx="573.5" cy="376.3" r="10.5"/>
<g>
	<defs>
		<path id="SVGID_3_" d="M460.2,361.7h-25c-1.2,0-2.2,1-2.2,2.2v45.7c0,1.2,1,2.2,2.2,2.2h25c1.2,0,2.2-1,2.2-2.2v-45.7
			C462.4,362.7,461.4,361.7,460.2,361.7z"/>
	</defs>
	<clipPath id="SVGID_4_">
		<use xlink:href="#SVGID_3_"  style="overflow:visible;"/>
	</clipPath>
	<circle class="st12" cx="453.9" cy="370.6" r="3.9"/>
</g>
<g>
	<defs>
		<path id="SVGID_5_" d="M586.3,361.7h-25c-1.2,0-2.2,1-2.2,2.2v45.7c0,1.2,1,2.2,2.2,2.2h25c1.2,0,2.2-1,2.2-2.2v-45.7
			C588.5,362.7,587.5,361.7,586.3,361.7z"/>
	</defs>
	<clipPath id="SVGID_6_">
		<use xlink:href="#SVGID_5_"  style="overflow:visible;"/>
	</clipPath>
	<circle class="st13" cx="580.2" cy="370.6" r="3.9"/>
</g>
<path class="st14" d="M505.1,934.5H317.4c-2.8,0-5-2.2-5-5v-59.8c0-2.8,2.2-5,5-5h187.7c2.8,0,5,2.2,5,5v59.8
	C510.1,932.3,507.9,934.5,505.1,934.5z"/>
<path class="st14" d="M710.4,934.5H522.6c-2.8,0-5-2.2-5-5v-59.8c0-2.8,2.2-5,5-5h187.7c2.8,0,5,2.2,5,5v59.8
	C715.4,932.3,713.1,934.5,710.4,934.5z"/>
<path class="st15" d="M352.5,222.1c-7.2,7.2-13.8,15.7-18.3,24.8c-1.6,3.3-3.6,7.5-2.8,11.3c1.1,5.6,7.9,4,10.7,0.5
	c2.2-2.6,3.1-6,4.3-9.1c3.4-8.6,9.4-16.2,16.9-21.6c3.8-2.8,7.9-4.7,12.3-6.4c4.8-1.9,9.8-3.1,14.4-5.8c1.3-0.8,2.7-1.6,3.7-2.8
	s1.8-2.6,1.8-4.2c0-2.1-1.4-4.1-3.3-5.1c-1.9-1-4.1-1.1-6.2-0.8c-9.3,1.6-18.4,8-26,13.3C357.5,218.1,354.8,219.9,352.5,222.1z"/>
<path class="st7" d="M713.9,325.4H305.3c-1.2,0-2.2-1-2.2-2.2v-24.3c0-1.2,1-2.2,2.2-2.2h408.6c1.2,0,2.2,1,2.2,2.2v24.3
	C716.1,324.4,715.1,325.4,713.9,325.4z"/>
<g>
	<defs>
		<path id="SVGID_7_" d="M713.9,325.4H305.3c-1.2,0-2.2-1-2.2-2.2v-24.3c0-1.2,1-2.2,2.2-2.2h408.6c1.2,0,2.2,1,2.2,2.2v24.3
			C716.1,324.4,715.1,325.4,713.9,325.4z"/>
	</defs>
	<clipPath id="SVGID_8_">
		<use xlink:href="#SVGID_7_"  style="overflow:visible;"/>
	</clipPath>
	<rect x="303.1" y="311.1" class="st16" width="412.2" height="15.9"/>
</g>
<path class="st17" d="M714.8,689.6H304.4c-0.7,0-1.3-0.6-1.3-1.3v-14.5c0-0.7,0.6-1.3,1.3-1.3h410.3c0.7,0,1.3,0.6,1.3,1.3v14.5
	C716.1,689,715.5,689.6,714.8,689.6z"/>
<g>
	<defs>
		<path id="SVGID_9_" d="M714.8,689.6H304.4c-0.7,0-1.3-0.6-1.3-1.3v-14.5c0-0.7,0.6-1.3,1.3-1.3h410.3c0.7,0,1.3,0.6,1.3,1.3v14.5
			C716.1,689,715.5,689.6,714.8,689.6z"/>
	</defs>
	<clipPath id="SVGID_10_">
		<use xlink:href="#SVGID_9_"  style="overflow:visible;"/>
	</clipPath>
	<rect x="303.1" y="681" class="st18" width="412.2" height="9.5"/>
</g>
<circle class="st19" cx="509.6" cy="681" r="34.7"/>
<path class="st7" d="M498.4,664.5c4.3-2.4,9.4-4.5,14.3-5.1c3-0.4,7.3-0.5,10.4-0.2c1.7,0.1,9.8,0.9,10.9,2.1
	c-4.2-5.2-9.7-8.5-15.6-10.4c-5.8-1.8-14.1-1.8-19.8,0.5c-7.4,3-13.3,8-17.2,15.6c-1.9,3.6-3.4,9-3.5,13.2c-0.1,2.1,0.4,5,0.4,5
	s3.4-5.3,5-7.3C487.9,672.2,491.9,668,498.4,664.5z"/>
<path class="st2" d="M784.9,519.5l-76.1-28.3c-2.6-1-3.9-3.9-2.9-6.4l19.7-52.9c1-2.6,3.9-3.9,6.4-2.9l76.1,28.3
	c2.6,1,3.9,3.9,2.9,6.4l-19.7,52.9C790.4,519.1,787.5,520.5,784.9,519.5z"/>
<g>
	<path class="st0" d="M738.1,516.3l-19.1-6.7c-0.7-0.2-1-1-0.8-1.6l17.1-48.5c0.2-0.7,1-1,1.6-0.8l19.1,6.7c0.7,0.2,1,1,0.8,1.6
		l-17.1,48.5C739.5,516.1,738.8,516.5,738.1,516.3z"/>
	<path class="st0" d="M768.5,537.2l-19.1-6.7c-0.7-0.2-1-1-0.8-1.6l17.1-48.5c0.2-0.7,1-1,1.6-0.8l19.1,6.7c0.7,0.2,1,1,0.8,1.6
		l-17.1,48.5C769.9,537.1,769.2,537.5,768.5,537.2z"/>
	<path class="st3" d="M725.7,498l15.1,5.8c0,0-5.3,8.6-11.5,6.4C722.8,507.8,725.7,498,725.7,498z"/>
	<path class="st3" d="M756.2,518.9l15.4,5.9c0,0-5.6,8.5-11.8,6.3C753.8,529,756.2,518.9,756.2,518.9z"/>
	<line class="st1" x1="740" y1="466.7" x2="749.4" y2="469.8"/>
	<line class="st1" x1="735.7" y1="470.3" x2="750.4" y2="475.5"/>
	<line class="st1" x1="770" y1="486.9" x2="779.5" y2="490.1"/>
	<line class="st1" x1="766.1" y1="490.6" x2="780.8" y2="495.8"/>
</g>
</svg>
